<?xml version="1.0" encoding="UTF-8" standalone="no"?>
<!DOCTYPE svg PUBLIC "-//W3C//DTD SVG 1.1//EN"
 "http://www.w3.org/Graphics/SVG/1.1/DTD/svg11.dtd">
<!-- Generated by graphviz version 14.0.4 (20251115.1723)
 -->
<!-- Pages: 1 -->
<svg width="423pt" height="513pt"
 viewBox="0.00 0.00 423.00 513.00" xmlns="http://www.w3.org/2000/svg" xmlns:xlink="http://www.w3.org/1999/xlink">
<g id="graph0" class="graph" transform="scale(1 1) rotate(0) translate(4 508.5)">
<polygon fill="white" stroke="none" points="-4,4 -4,-508.5 418.75,-508.5 418.75,4 -4,4"/>
<!-- node00000022c45ffc50 -->
<g id="node1" class="node">
<title>node00000022c45ffc50</title>
<path fill="#dd7538" stroke="#000000" d="M181.12,-430.5C181.12,-430.5 320.88,-430.5 320.88,-430.5 326.88,-430.5 332.88,-436.5 332.88,-442.5 332.88,-442.5 332.88,-492 332.88,-492 332.88,-498 326.88,-504 320.88,-504 320.88,-504 181.12,-504 181.12,-504 175.12,-504 169.12,-498 169.12,-492 169.12,-492 169.12,-442.5 169.12,-442.5 169.12,-436.5 175.12,-430.5 181.12,-430.5"/>
<text xml:space="preserve" text-anchor="middle" x="251" y="-486.7" font-family="Times New Roman,serif" font-size="14.00">PTR: 00000022c45ffc50</text>
<polyline fill="none" stroke="#000000" points="169.12,-479.5 332.88,-479.5"/>
<text xml:space="preserve" text-anchor="middle" x="251" y="-462.2" font-family="Times New Roman,serif" font-size="14.00">SIZE: 10</text>
<polyline fill="none" stroke="#000000" points="169.12,-455 332.88,-455"/>
<text xml:space="preserve" text-anchor="middle" x="251" y="-437.7" font-family="Times New Roman,serif" font-size="14.00">ROOT: 000001e16fd261e0</text>
</g>
<!-- node000001e16fd261e0 -->
<g id="node2" class="node">
<title>node000001e16fd261e0</title>
<path fill="#dd65c9" stroke="#000000" d="M210.25,-344.5C210.25,-344.5 291.75,-344.5 291.75,-344.5 297.75,-344.5 303.75,-350.5 303.75,-356.5 303.75,-356.5 303.75,-381.5 303.75,-381.5 303.75,-387.5 297.75,-393.5 291.75,-393.5 291.75,-393.5 210.25,-393.5 210.25,-393.5 204.25,-393.5 198.25,-387.5 198.25,-381.5 198.25,-381.5 198.25,-356.5 198.25,-356.5 198.25,-350.5 204.25,-344.5 210.25,-344.5"/>
<text xml:space="preserve" text-anchor="middle" x="251" y="-376.2" font-family="Times New Roman,serif" font-size="14.00">TYPE: ;</text>
<polyline fill="none" stroke="#000000" points="198.25,-369 303.75,-369"/>
<text xml:space="preserve" text-anchor="middle" x="222.38" y="-351.7" font-family="Times New Roman,serif" font-size="14.00">LEFT</text>
<polyline fill="none" stroke="#000000" points="246.5,-344.5 246.5,-369"/>
<text xml:space="preserve" text-anchor="middle" x="275.12" y="-351.7" font-family="Times New Roman,serif" font-size="14.00">RIGHT</text>
</g>
<!-- node00000022c45ffc50&#45;&gt;node000001e16fd261e0 -->
<g id="edge1" class="edge">
<title>node00000022c45ffc50&#45;&gt;node000001e16fd261e0</title>
<path fill="none" stroke="black" d="M251,-418.81C251,-414.19 251,-409.56 251,-405.09"/>
<polygon fill="black" stroke="black" points="247.5,-418.62 251,-428.62 254.5,-418.62 247.5,-418.62"/>
<polygon fill="black" stroke="black" points="254.5,-405.27 251,-395.27 247.5,-405.27 254.5,-405.27"/>
</g>
<!-- node000001e16fd26220 -->
<g id="node3" class="node">
<title>node000001e16fd26220</title>
<path fill="#ffa551" stroke="#000000" d="M111.25,-258.5C111.25,-258.5 192.75,-258.5 192.75,-258.5 198.75,-258.5 204.75,-264.5 204.75,-270.5 204.75,-270.5 204.75,-295.5 204.75,-295.5 204.75,-301.5 198.75,-307.5 192.75,-307.5 192.75,-307.5 111.25,-307.5 111.25,-307.5 105.25,-307.5 99.25,-301.5 99.25,-295.5 99.25,-295.5 99.25,-270.5 99.25,-270.5 99.25,-264.5 105.25,-258.5 111.25,-258.5"/>
<text xml:space="preserve" text-anchor="middle" x="152" y="-290.2" font-family="Times New Roman,serif" font-size="14.00">TYPE: =</text>
<polyline fill="none" stroke="#000000" points="99.25,-283 204.75,-283"/>
<text xml:space="preserve" text-anchor="middle" x="123.38" y="-265.7" font-family="Times New Roman,serif" font-size="14.00">LEFT</text>
<polyline fill="none" stroke="#000000" points="147.5,-258.5 147.5,-283"/>
<text xml:space="preserve" text-anchor="middle" x="176.12" y="-265.7" font-family="Times New Roman,serif" font-size="14.00">RIGHT</text>
</g>
<!-- node000001e16fd261e0&#45;&gt;node000001e16fd26220 -->
<g id="edge2" class="edge">
<title>node000001e16fd261e0:sw&#45;&gt;node000001e16fd26220</title>
<path fill="none" stroke="black" d="M190.36,-335.63C184.9,-329.54 179.65,-323.06 174.88,-316.83"/>
<polygon fill="black" stroke="black" points="187.8,-338.03 197.21,-342.9 192.9,-333.22 187.8,-338.03"/>
<polygon fill="black" stroke="black" points="177.95,-315.08 169.17,-309.16 172.33,-319.27 177.95,-315.08"/>
</g>
<!-- node000001e16fd27f20 -->
<g id="node4" class="node">
<title>node000001e16fd27f20</title>
<path fill="#dd65c9" stroke="#000000" d="M306.5,-265C306.5,-265 343.5,-265 343.5,-265 349.5,-265 355.5,-271 355.5,-277 355.5,-277 355.5,-289 355.5,-289 355.5,-295 349.5,-301 343.5,-301 343.5,-301 306.5,-301 306.5,-301 300.5,-301 294.5,-295 294.5,-289 294.5,-289 294.5,-277 294.5,-277 294.5,-271 300.5,-265 306.5,-265"/>
<text xml:space="preserve" text-anchor="middle" x="325" y="-278.2" font-family="Times New Roman,serif" font-size="14.00">TYPE: ;</text>
</g>
<!-- node000001e16fd261e0&#45;&gt;node000001e16fd27f20 -->
<g id="edge3" class="edge">
<title>node000001e16fd261e0:se&#45;&gt;node000001e16fd27f20</title>
<path fill="none" stroke="black" d="M310.81,-335.05C315.24,-328.01 318.3,-319.96 320.41,-312.37"/>
<polygon fill="black" stroke="black" points="308.13,-332.79 304.69,-342.81 313.63,-337.13 308.13,-332.79"/>
<polygon fill="black" stroke="black" points="323.76,-313.4 322.58,-302.87 316.94,-311.84 323.76,-313.4"/>
</g>
<!-- node000001e16fd27c60 -->
<g id="node5" class="node">
<title>node000001e16fd27c60</title>
<path fill="#7dc368" stroke="#000000" d="M76.25,-179C76.25,-179 123.75,-179 123.75,-179 129.75,-179 135.75,-185 135.75,-191 135.75,-191 135.75,-203 135.75,-203 135.75,-209 129.75,-215 123.75,-215 123.75,-215 76.25,-215 76.25,-215 70.25,-215 64.25,-209 64.25,-203 64.25,-203 64.25,-191 64.25,-191 64.25,-185 70.25,-179 76.25,-179"/>
<text xml:space="preserve" text-anchor="middle" x="100" y="-192.2" font-family="Times New Roman,serif" font-size="14.00">TYPE: int</text>
</g>
<!-- node000001e16fd26220&#45;&gt;node000001e16fd27c60 -->
<g id="edge4" class="edge">
<title>node000001e16fd26220:sw&#45;&gt;node000001e16fd27c60</title>
<path fill="none" stroke="black" d="M93.22,-248.37C90.77,-241.63 90.66,-233.9 91.62,-226.54"/>
<polygon fill="black" stroke="black" points="90.17,-250.1 98.45,-256.72 96.1,-246.38 90.17,-250.1"/>
<polygon fill="black" stroke="black" points="95,-227.46 93.52,-216.96 88.14,-226.09 95,-227.46"/>
</g>
<!-- node000001e16fd27ce0 -->
<g id="node6" class="node">
<title>node000001e16fd27ce0</title>
<path fill="#51ff51" stroke="#000000" d="M169.25,-172.5C169.25,-172.5 234.75,-172.5 234.75,-172.5 240.75,-172.5 246.75,-178.5 246.75,-184.5 246.75,-184.5 246.75,-209.5 246.75,-209.5 246.75,-215.5 240.75,-221.5 234.75,-221.5 234.75,-221.5 169.25,-221.5 169.25,-221.5 163.25,-221.5 157.25,-215.5 157.25,-209.5 157.25,-209.5 157.25,-184.5 157.25,-184.5 157.25,-178.5 163.25,-172.5 169.25,-172.5"/>
<text xml:space="preserve" text-anchor="middle" x="202" y="-204.2" font-family="Times New Roman,serif" font-size="14.00">TYPE: NUM</text>
<polyline fill="none" stroke="#000000" points="157.25,-197 246.75,-197"/>
<text xml:space="preserve" text-anchor="middle" x="202" y="-179.7" font-family="Times New Roman,serif" font-size="14.00">VALUE: 12</text>
</g>
<!-- node000001e16fd26220&#45;&gt;node000001e16fd27ce0 -->
<g id="edge5" class="edge">
<title>node000001e16fd26220:se&#45;&gt;node000001e16fd27ce0</title>
<path fill="none" stroke="black" d="M210.69,-248.31C212.3,-243.58 212.7,-238.35 212.38,-233.12"/>
<polygon fill="black" stroke="black" points="207.78,-246.35 205.54,-256.71 213.75,-250.01 207.78,-246.35"/>
<polygon fill="black" stroke="black" points="215.85,-232.67 210.89,-223.31 208.93,-233.72 215.85,-232.67"/>
</g>
<!-- node000001e17136adb0 -->
<g id="node8" class="node">
<title>node000001e17136adb0</title>
<path fill="#ffa551" stroke="#000000" d="M277.25,-172.5C277.25,-172.5 358.75,-172.5 358.75,-172.5 364.75,-172.5 370.75,-178.5 370.75,-184.5 370.75,-184.5 370.75,-209.5 370.75,-209.5 370.75,-215.5 364.75,-221.5 358.75,-221.5 358.75,-221.5 277.25,-221.5 277.25,-221.5 271.25,-221.5 265.25,-215.5 265.25,-209.5 265.25,-209.5 265.25,-184.5 265.25,-184.5 265.25,-178.5 271.25,-172.5 277.25,-172.5"/>
<text xml:space="preserve" text-anchor="middle" x="318" y="-204.2" font-family="Times New Roman,serif" font-size="14.00">TYPE: =</text>
<polyline fill="none" stroke="#000000" points="265.25,-197 370.75,-197"/>
<text xml:space="preserve" text-anchor="middle" x="289.38" y="-179.7" font-family="Times New Roman,serif" font-size="14.00">LEFT</text>
<polyline fill="none" stroke="#000000" points="313.5,-172.5 313.5,-197"/>
<text xml:space="preserve" text-anchor="middle" x="342.12" y="-179.7" font-family="Times New Roman,serif" font-size="14.00">RIGHT</text>
</g>
<!-- node000001e16fd27f20&#45;&gt;node000001e17136adb0 -->
<g id="edge7" class="edge">
<title>node000001e16fd27f20:sw&#45;&gt;node000001e17136adb0</title>
<path fill="none" stroke="black" d="M288.98,-253.97C287.5,-247.05 289.49,-239.27 293.02,-231.75"/>
<polygon fill="black" stroke="black" points="285.88,-255.6 293.77,-262.67 292.02,-252.23 285.88,-255.6"/>
<polygon fill="black" stroke="black" points="296.04,-233.54 297.87,-223.1 289.93,-230.12 296.04,-233.54"/>
</g>
<!-- node000001e16fd27ca0 -->
<g id="node7" class="node">
<title>node000001e16fd27ca0</title>
<path fill="#8791ff" stroke="#000000" d="M12,-86.5C12,-86.5 118,-86.5 118,-86.5 124,-86.5 130,-92.5 130,-98.5 130,-98.5 130,-123.5 130,-123.5 130,-129.5 124,-135.5 118,-135.5 118,-135.5 12,-135.5 12,-135.5 6,-135.5 0,-129.5 0,-123.5 0,-123.5 0,-98.5 0,-98.5 0,-92.5 6,-86.5 12,-86.5"/>
<text xml:space="preserve" text-anchor="middle" x="65" y="-118.2" font-family="Times New Roman,serif" font-size="14.00">TYPE: IDENT</text>
<polyline fill="none" stroke="#000000" points="0,-111 130,-111"/>
<text xml:space="preserve" text-anchor="middle" x="65" y="-93.7" font-family="Times New Roman,serif" font-size="14.00">VALUE: Пидорассо</text>
</g>
<!-- node000001e16fd27c60&#45;&gt;node000001e16fd27ca0 -->
<g id="edge6" class="edge">
<title>node000001e16fd27c60:sw&#45;&gt;node000001e16fd27ca0</title>
<path fill="none" stroke="black" d="M58.07,-168.59C55.39,-162.06 54.85,-154.56 55.43,-147.2"/>
<polygon fill="black" stroke="black" points="55,-170.3 63.42,-176.74 60.85,-166.46 55,-170.3"/>
<polygon fill="black" stroke="black" points="58.88,-147.83 56.89,-137.42 51.95,-146.8 58.88,-147.83"/>
</g>
<!-- node000001e17136aa30 -->
<g id="node9" class="node">
<title>node000001e17136aa30</title>
<path fill="#7dc368" stroke="#000000" d="M242.25,-93C242.25,-93 289.75,-93 289.75,-93 295.75,-93 301.75,-99 301.75,-105 301.75,-105 301.75,-117 301.75,-117 301.75,-123 295.75,-129 289.75,-129 289.75,-129 242.25,-129 242.25,-129 236.25,-129 230.25,-123 230.25,-117 230.25,-117 230.25,-105 230.25,-105 230.25,-99 236.25,-93 242.25,-93"/>
<text xml:space="preserve" text-anchor="middle" x="266" y="-106.2" font-family="Times New Roman,serif" font-size="14.00">TYPE: int</text>
</g>
<!-- node000001e17136adb0&#45;&gt;node000001e17136aa30 -->
<g id="edge8" class="edge">
<title>node000001e17136adb0:sw&#45;&gt;node000001e17136aa30</title>
<path fill="none" stroke="black" d="M259.22,-162.37C256.77,-155.63 256.66,-147.9 257.62,-140.54"/>
<polygon fill="black" stroke="black" points="256.17,-164.1 264.45,-170.72 262.1,-160.38 256.17,-164.1"/>
<polygon fill="black" stroke="black" points="261,-141.46 259.52,-130.96 254.14,-140.09 261,-141.46"/>
</g>
<!-- node000001e17136a7b0 -->
<g id="node10" class="node">
<title>node000001e17136a7b0</title>
<path fill="#51ff51" stroke="#000000" d="M337.25,-86.5C337.25,-86.5 402.75,-86.5 402.75,-86.5 408.75,-86.5 414.75,-92.5 414.75,-98.5 414.75,-98.5 414.75,-123.5 414.75,-123.5 414.75,-129.5 408.75,-135.5 402.75,-135.5 402.75,-135.5 337.25,-135.5 337.25,-135.5 331.25,-135.5 325.25,-129.5 325.25,-123.5 325.25,-123.5 325.25,-98.5 325.25,-98.5 325.25,-92.5 331.25,-86.5 337.25,-86.5"/>
<text xml:space="preserve" text-anchor="middle" x="370" y="-118.2" font-family="Times New Roman,serif" font-size="14.00">TYPE: NUM</text>
<polyline fill="none" stroke="#000000" points="325.25,-111 414.75,-111"/>
<text xml:space="preserve" text-anchor="middle" x="370" y="-93.7" font-family="Times New Roman,serif" font-size="14.00">VALUE: 13</text>
</g>
<!-- node000001e17136adb0&#45;&gt;node000001e17136a7b0 -->
<g id="edge9" class="edge">
<title>node000001e17136adb0:se&#45;&gt;node000001e17136a7b0</title>
<path fill="none" stroke="black" d="M376.8,-162.31C378.51,-157.59 379.07,-152.36 378.92,-147.13"/>
<polygon fill="black" stroke="black" points="373.88,-160.38 371.55,-170.72 379.82,-164.09 373.88,-160.38"/>
<polygon fill="black" stroke="black" points="382.41,-146.86 377.79,-137.32 375.46,-147.66 382.41,-146.86"/>
</g>
<!-- node000001e17136ac70 -->
<g id="node11" class="node">
<title>node000001e17136ac70</title>
<path fill="#8791ff" stroke="#000000" d="M191.5,-0.5C191.5,-0.5 270.5,-0.5 270.5,-0.5 276.5,-0.5 282.5,-6.5 282.5,-12.5 282.5,-12.5 282.5,-37.5 282.5,-37.5 282.5,-43.5 276.5,-49.5 270.5,-49.5 270.5,-49.5 191.5,-49.5 191.5,-49.5 185.5,-49.5 179.5,-43.5 179.5,-37.5 179.5,-37.5 179.5,-12.5 179.5,-12.5 179.5,-6.5 185.5,-0.5 191.5,-0.5"/>
<text xml:space="preserve" text-anchor="middle" x="231" y="-32.2" font-family="Times New Roman,serif" font-size="14.00">TYPE: IDENT</text>
<polyline fill="none" stroke="#000000" points="179.5,-25 282.5,-25"/>
<text xml:space="preserve" text-anchor="middle" x="231" y="-7.7" font-family="Times New Roman,serif" font-size="14.00">VALUE: Еблан</text>
</g>
<!-- node000001e17136aa30&#45;&gt;node000001e17136ac70 -->
<g id="edge10" class="edge">
<title>node000001e17136aa30:sw&#45;&gt;node000001e17136ac70</title>
<path fill="none" stroke="black" d="M224.07,-82.59C221.39,-76.06 220.85,-68.56 221.43,-61.2"/>
<polygon fill="black" stroke="black" points="221,-84.3 229.42,-90.74 226.85,-80.46 221,-84.3"/>
<polygon fill="black" stroke="black" points="224.88,-61.83 222.89,-51.42 217.95,-60.8 224.88,-61.83"/>
</g>
</g>
</svg>
