<?xml version="1.0" encoding="UTF-8" standalone="no"?>
<!DOCTYPE svg PUBLIC "-//W3C//DTD SVG 1.1//EN"
 "http://www.w3.org/Graphics/SVG/1.1/DTD/svg11.dtd">
<!-- Generated by graphviz version 14.0.4 (20251115.1723)
 -->
<!-- Pages: 1 -->
<svg width="775pt" height="599pt"
 viewBox="0.00 0.00 775.00 599.00" xmlns="http://www.w3.org/2000/svg" xmlns:xlink="http://www.w3.org/1999/xlink">
<g id="graph0" class="graph" transform="scale(1 1) rotate(0) translate(4 594.5)">
<polygon fill="white" stroke="none" points="-4,4 -4,-594.5 770.5,-594.5 770.5,4 -4,4"/>
<!-- node00000022c45ffc50 -->
<g id="node1" class="node">
<title>node00000022c45ffc50</title>
<path fill="#dd7538" stroke="#000000" d="M343.88,-516.5C343.88,-516.5 483.62,-516.5 483.62,-516.5 489.62,-516.5 495.62,-522.5 495.62,-528.5 495.62,-528.5 495.62,-578 495.62,-578 495.62,-584 489.62,-590 483.62,-590 483.62,-590 343.88,-590 343.88,-590 337.88,-590 331.88,-584 331.88,-578 331.88,-578 331.88,-528.5 331.88,-528.5 331.88,-522.5 337.88,-516.5 343.88,-516.5"/>
<text xml:space="preserve" text-anchor="middle" x="413.75" y="-572.7" font-family="Times New Roman,serif" font-size="14.00">PTR: 00000022c45ffc50</text>
<polyline fill="none" stroke="#000000" points="331.88,-565.5 495.62,-565.5"/>
<text xml:space="preserve" text-anchor="middle" x="413.75" y="-548.2" font-family="Times New Roman,serif" font-size="14.00">SIZE: 22</text>
<polyline fill="none" stroke="#000000" points="331.88,-541 495.62,-541"/>
<text xml:space="preserve" text-anchor="middle" x="413.75" y="-523.7" font-family="Times New Roman,serif" font-size="14.00">ROOT: 000001e16fd261e0</text>
</g>
<!-- node000001e16fd261e0 -->
<g id="node2" class="node">
<title>node000001e16fd261e0</title>
<path fill="#dd65c9" stroke="#000000" d="M373,-430.5C373,-430.5 454.5,-430.5 454.5,-430.5 460.5,-430.5 466.5,-436.5 466.5,-442.5 466.5,-442.5 466.5,-467.5 466.5,-467.5 466.5,-473.5 460.5,-479.5 454.5,-479.5 454.5,-479.5 373,-479.5 373,-479.5 367,-479.5 361,-473.5 361,-467.5 361,-467.5 361,-442.5 361,-442.5 361,-436.5 367,-430.5 373,-430.5"/>
<text xml:space="preserve" text-anchor="middle" x="413.75" y="-462.2" font-family="Times New Roman,serif" font-size="14.00">TYPE: ;</text>
<polyline fill="none" stroke="#000000" points="361,-455 466.5,-455"/>
<text xml:space="preserve" text-anchor="middle" x="385.12" y="-437.7" font-family="Times New Roman,serif" font-size="14.00">LEFT</text>
<polyline fill="none" stroke="#000000" points="409.25,-430.5 409.25,-455"/>
<text xml:space="preserve" text-anchor="middle" x="437.88" y="-437.7" font-family="Times New Roman,serif" font-size="14.00">RIGHT</text>
</g>
<!-- node00000022c45ffc50&#45;&gt;node000001e16fd261e0 -->
<g id="edge1" class="edge">
<title>node00000022c45ffc50&#45;&gt;node000001e16fd261e0</title>
<path fill="none" stroke="black" d="M413.75,-504.81C413.75,-500.19 413.75,-495.56 413.75,-491.09"/>
<polygon fill="black" stroke="black" points="410.25,-504.62 413.75,-514.62 417.25,-504.62 410.25,-504.62"/>
<polygon fill="black" stroke="black" points="417.25,-491.27 413.75,-481.27 410.25,-491.27 417.25,-491.27"/>
</g>
<!-- node000001e16fd26220 -->
<g id="node3" class="node">
<title>node000001e16fd26220</title>
<path fill="#ffa551" stroke="#000000" d="M225,-344.5C225,-344.5 306.5,-344.5 306.5,-344.5 312.5,-344.5 318.5,-350.5 318.5,-356.5 318.5,-356.5 318.5,-381.5 318.5,-381.5 318.5,-387.5 312.5,-393.5 306.5,-393.5 306.5,-393.5 225,-393.5 225,-393.5 219,-393.5 213,-387.5 213,-381.5 213,-381.5 213,-356.5 213,-356.5 213,-350.5 219,-344.5 225,-344.5"/>
<text xml:space="preserve" text-anchor="middle" x="265.75" y="-376.2" font-family="Times New Roman,serif" font-size="14.00">TYPE: =</text>
<polyline fill="none" stroke="#000000" points="213,-369 318.5,-369"/>
<text xml:space="preserve" text-anchor="middle" x="237.12" y="-351.7" font-family="Times New Roman,serif" font-size="14.00">LEFT</text>
<polyline fill="none" stroke="#000000" points="261.25,-344.5 261.25,-369"/>
<text xml:space="preserve" text-anchor="middle" x="289.88" y="-351.7" font-family="Times New Roman,serif" font-size="14.00">RIGHT</text>
</g>
<!-- node000001e16fd261e0&#45;&gt;node000001e16fd26220 -->
<g id="edge2" class="edge">
<title>node000001e16fd261e0:sw&#45;&gt;node000001e16fd26220</title>
<path fill="none" stroke="black" d="M352.7,-422.26C343.14,-413.91 332.46,-406.28 321.95,-399.59"/>
<polygon fill="black" stroke="black" points="350.19,-424.71 359.89,-428.97 354.97,-419.59 350.19,-424.71"/>
<polygon fill="black" stroke="black" points="324.03,-396.75 313.67,-394.5 320.36,-402.72 324.03,-396.75"/>
</g>
<!-- node000001e16fd27f20 -->
<g id="node4" class="node">
<title>node000001e16fd27f20</title>
<path fill="#dd65c9" stroke="#000000" d="M492.25,-351C492.25,-351 529.25,-351 529.25,-351 535.25,-351 541.25,-357 541.25,-363 541.25,-363 541.25,-375 541.25,-375 541.25,-381 535.25,-387 529.25,-387 529.25,-387 492.25,-387 492.25,-387 486.25,-387 480.25,-381 480.25,-375 480.25,-375 480.25,-363 480.25,-363 480.25,-357 486.25,-351 492.25,-351"/>
<text xml:space="preserve" text-anchor="middle" x="510.75" y="-364.2" font-family="Times New Roman,serif" font-size="14.00">TYPE: ;</text>
</g>
<!-- node000001e16fd261e0&#45;&gt;node000001e16fd27f20 -->
<g id="edge3" class="edge">
<title>node000001e16fd261e0:se&#45;&gt;node000001e16fd27f20</title>
<path fill="none" stroke="black" d="M474.29,-421.65C481.4,-413.56 488.04,-404.72 493.66,-396.68"/>
<polygon fill="black" stroke="black" points="471.8,-419.2 467.53,-428.89 476.92,-423.97 471.8,-419.2"/>
<polygon fill="black" stroke="black" points="496.41,-398.86 499.12,-388.62 490.62,-394.93 496.41,-398.86"/>
</g>
<!-- node000001e16fd27c60 -->
<g id="node5" class="node">
<title>node000001e16fd27c60</title>
<path fill="#7dc368" stroke="#000000" d="M164,-265C164,-265 211.5,-265 211.5,-265 217.5,-265 223.5,-271 223.5,-277 223.5,-277 223.5,-289 223.5,-289 223.5,-295 217.5,-301 211.5,-301 211.5,-301 164,-301 164,-301 158,-301 152,-295 152,-289 152,-289 152,-277 152,-277 152,-271 158,-265 164,-265"/>
<text xml:space="preserve" text-anchor="middle" x="187.75" y="-278.2" font-family="Times New Roman,serif" font-size="14.00">TYPE: int</text>
</g>
<!-- node000001e16fd26220&#45;&gt;node000001e16fd27c60 -->
<g id="edge4" class="edge">
<title>node000001e16fd26220:sw&#45;&gt;node000001e16fd27c60</title>
<path fill="none" stroke="black" d="M205.83,-335.24C200.91,-328.01 197.25,-319.76 194.55,-312.03"/>
<polygon fill="black" stroke="black" points="203,-337.31 212.04,-342.83 208.42,-332.87 203,-337.31"/>
<polygon fill="black" stroke="black" points="197.97,-311.24 191.71,-302.7 191.28,-313.28 197.97,-311.24"/>
</g>
<!-- node000001e16fd27ce0 -->
<g id="node6" class="node">
<title>node000001e16fd27ce0</title>
<path fill="#ffa551" stroke="#000000" d="M277,-258.5C277,-258.5 358.5,-258.5 358.5,-258.5 364.5,-258.5 370.5,-264.5 370.5,-270.5 370.5,-270.5 370.5,-295.5 370.5,-295.5 370.5,-301.5 364.5,-307.5 358.5,-307.5 358.5,-307.5 277,-307.5 277,-307.5 271,-307.5 265,-301.5 265,-295.5 265,-295.5 265,-270.5 265,-270.5 265,-264.5 271,-258.5 277,-258.5"/>
<text xml:space="preserve" text-anchor="middle" x="317.75" y="-290.2" font-family="Times New Roman,serif" font-size="14.00">TYPE: +</text>
<polyline fill="none" stroke="#000000" points="265,-283 370.5,-283"/>
<text xml:space="preserve" text-anchor="middle" x="289.12" y="-265.7" font-family="Times New Roman,serif" font-size="14.00">LEFT</text>
<polyline fill="none" stroke="#000000" points="313.25,-258.5 313.25,-283"/>
<text xml:space="preserve" text-anchor="middle" x="341.88" y="-265.7" font-family="Times New Roman,serif" font-size="14.00">RIGHT</text>
</g>
<!-- node000001e16fd26220&#45;&gt;node000001e16fd27ce0 -->
<g id="edge5" class="edge">
<title>node000001e16fd26220:se&#45;&gt;node000001e16fd27ce0</title>
<path fill="none" stroke="black" d="M324.55,-334.31C326.26,-329.59 326.82,-324.36 326.67,-319.13"/>
<polygon fill="black" stroke="black" points="321.63,-332.38 319.3,-342.72 327.57,-336.09 321.63,-332.38"/>
<polygon fill="black" stroke="black" points="330.16,-318.86 325.54,-309.32 323.21,-319.66 330.16,-318.86"/>
</g>
<!-- node000001e17136adb0 -->
<g id="node16" class="node">
<title>node000001e17136adb0</title>
<path fill="#ffa551" stroke="#000000" d="M486,-258.5C486,-258.5 567.5,-258.5 567.5,-258.5 573.5,-258.5 579.5,-264.5 579.5,-270.5 579.5,-270.5 579.5,-295.5 579.5,-295.5 579.5,-301.5 573.5,-307.5 567.5,-307.5 567.5,-307.5 486,-307.5 486,-307.5 480,-307.5 474,-301.5 474,-295.5 474,-295.5 474,-270.5 474,-270.5 474,-264.5 480,-258.5 486,-258.5"/>
<text xml:space="preserve" text-anchor="middle" x="526.75" y="-290.2" font-family="Times New Roman,serif" font-size="14.00">TYPE: =</text>
<polyline fill="none" stroke="#000000" points="474,-283 579.5,-283"/>
<text xml:space="preserve" text-anchor="middle" x="498.12" y="-265.7" font-family="Times New Roman,serif" font-size="14.00">LEFT</text>
<polyline fill="none" stroke="#000000" points="522.25,-258.5 522.25,-283"/>
<text xml:space="preserve" text-anchor="middle" x="550.88" y="-265.7" font-family="Times New Roman,serif" font-size="14.00">RIGHT</text>
</g>
<!-- node000001e16fd27f20&#45;&gt;node000001e17136adb0 -->
<g id="edge15" class="edge">
<title>node000001e16fd27f20:sw&#45;&gt;node000001e17136adb0</title>
<path fill="none" stroke="black" d="M474.97,-339.96C473.91,-332.15 478.66,-323.7 485.67,-315.79"/>
<polygon fill="black" stroke="black" points="471.8,-341.44 479.55,-348.66 477.99,-338.18 471.8,-341.44"/>
<polygon fill="black" stroke="black" points="487.99,-318.42 492.57,-308.87 483.03,-313.48 487.99,-318.42"/>
</g>
<!-- node000001e16fd27ca0 -->
<g id="node7" class="node">
<title>node000001e16fd27ca0</title>
<path fill="#8791ff" stroke="#000000" d="M70.75,-172.5C70.75,-172.5 176.75,-172.5 176.75,-172.5 182.75,-172.5 188.75,-178.5 188.75,-184.5 188.75,-184.5 188.75,-209.5 188.75,-209.5 188.75,-215.5 182.75,-221.5 176.75,-221.5 176.75,-221.5 70.75,-221.5 70.75,-221.5 64.75,-221.5 58.75,-215.5 58.75,-209.5 58.75,-209.5 58.75,-184.5 58.75,-184.5 58.75,-178.5 64.75,-172.5 70.75,-172.5"/>
<text xml:space="preserve" text-anchor="middle" x="123.75" y="-204.2" font-family="Times New Roman,serif" font-size="14.00">TYPE: IDENT</text>
<polyline fill="none" stroke="#000000" points="58.75,-197 188.75,-197"/>
<text xml:space="preserve" text-anchor="middle" x="123.75" y="-179.7" font-family="Times New Roman,serif" font-size="14.00">VALUE: Пидорассо</text>
</g>
<!-- node000001e16fd27c60&#45;&gt;node000001e16fd27ca0 -->
<g id="edge6" class="edge">
<title>node000001e16fd27c60:sw&#45;&gt;node000001e16fd27ca0</title>
<path fill="none" stroke="black" d="M144.64,-255.17C139.76,-248.21 135.93,-240.36 132.97,-232.74"/>
<polygon fill="black" stroke="black" points="141.94,-257.39 151.03,-262.84 147.32,-252.91 141.94,-257.39"/>
<polygon fill="black" stroke="black" points="136.29,-231.64 129.71,-223.33 129.67,-233.93 136.29,-231.64"/>
</g>
<!-- node000001e16fd27d20 -->
<g id="node8" class="node">
<title>node000001e16fd27d20</title>
<path fill="#ffa551" stroke="#000000" d="M219,-172.5C219,-172.5 300.5,-172.5 300.5,-172.5 306.5,-172.5 312.5,-178.5 312.5,-184.5 312.5,-184.5 312.5,-209.5 312.5,-209.5 312.5,-215.5 306.5,-221.5 300.5,-221.5 300.5,-221.5 219,-221.5 219,-221.5 213,-221.5 207,-215.5 207,-209.5 207,-209.5 207,-184.5 207,-184.5 207,-178.5 213,-172.5 219,-172.5"/>
<text xml:space="preserve" text-anchor="middle" x="259.75" y="-204.2" font-family="Times New Roman,serif" font-size="14.00">TYPE: &#45;</text>
<polyline fill="none" stroke="#000000" points="207,-197 312.5,-197"/>
<text xml:space="preserve" text-anchor="middle" x="231.12" y="-179.7" font-family="Times New Roman,serif" font-size="14.00">LEFT</text>
<polyline fill="none" stroke="#000000" points="255.25,-172.5 255.25,-197"/>
<text xml:space="preserve" text-anchor="middle" x="283.88" y="-179.7" font-family="Times New Roman,serif" font-size="14.00">RIGHT</text>
</g>
<!-- node000001e16fd27ce0&#45;&gt;node000001e16fd27d20 -->
<g id="edge7" class="edge">
<title>node000001e16fd27ce0:sw&#45;&gt;node000001e16fd27d20</title>
<path fill="none" stroke="black" d="M258.68,-248.57C256.61,-243.8 255.56,-238.52 255.16,-233.22"/>
<polygon fill="black" stroke="black" points="255.69,-250.38 264.16,-256.74 261.5,-246.49 255.69,-250.38"/>
<polygon fill="black" stroke="black" points="258.66,-233.32 255.2,-223.31 251.66,-233.29 258.66,-233.32"/>
</g>
<!-- node000001e16fd27ee0 -->
<g id="node9" class="node">
<title>node000001e16fd27ee0</title>
<path fill="#51ff51" stroke="#000000" d="M343,-172.5C343,-172.5 408.5,-172.5 408.5,-172.5 414.5,-172.5 420.5,-178.5 420.5,-184.5 420.5,-184.5 420.5,-209.5 420.5,-209.5 420.5,-215.5 414.5,-221.5 408.5,-221.5 408.5,-221.5 343,-221.5 343,-221.5 337,-221.5 331,-215.5 331,-209.5 331,-209.5 331,-184.5 331,-184.5 331,-178.5 337,-172.5 343,-172.5"/>
<text xml:space="preserve" text-anchor="middle" x="375.75" y="-204.2" font-family="Times New Roman,serif" font-size="14.00">TYPE: NUM</text>
<polyline fill="none" stroke="#000000" points="331,-197 420.5,-197"/>
<text xml:space="preserve" text-anchor="middle" x="375.75" y="-179.7" font-family="Times New Roman,serif" font-size="14.00">VALUE: 11</text>
</g>
<!-- node000001e16fd27ce0&#45;&gt;node000001e16fd27ee0 -->
<g id="edge8" class="edge">
<title>node000001e16fd27ce0:se&#45;&gt;node000001e16fd27ee0</title>
<path fill="none" stroke="black" d="M376.82,-248.57C378.89,-243.8 379.94,-238.52 380.34,-233.22"/>
<polygon fill="black" stroke="black" points="374,-246.49 371.34,-256.74 379.81,-250.38 374,-246.49"/>
<polygon fill="black" stroke="black" points="383.84,-233.29 380.3,-223.31 376.84,-233.32 383.84,-233.29"/>
</g>
<!-- node000001e16fd27d60 -->
<g id="node10" class="node">
<title>node000001e16fd27d60</title>
<path fill="#ffa551" stroke="#000000" d="M60,-86.5C60,-86.5 141.5,-86.5 141.5,-86.5 147.5,-86.5 153.5,-92.5 153.5,-98.5 153.5,-98.5 153.5,-123.5 153.5,-123.5 153.5,-129.5 147.5,-135.5 141.5,-135.5 141.5,-135.5 60,-135.5 60,-135.5 54,-135.5 48,-129.5 48,-123.5 48,-123.5 48,-98.5 48,-98.5 48,-92.5 54,-86.5 60,-86.5"/>
<text xml:space="preserve" text-anchor="middle" x="100.75" y="-118.2" font-family="Times New Roman,serif" font-size="14.00">TYPE: +</text>
<polyline fill="none" stroke="#000000" points="48,-111 153.5,-111"/>
<text xml:space="preserve" text-anchor="middle" x="72.12" y="-93.7" font-family="Times New Roman,serif" font-size="14.00">LEFT</text>
<polyline fill="none" stroke="#000000" points="96.25,-86.5 96.25,-111"/>
<text xml:space="preserve" text-anchor="middle" x="124.88" y="-93.7" font-family="Times New Roman,serif" font-size="14.00">RIGHT</text>
</g>
<!-- node000001e16fd27d20&#45;&gt;node000001e16fd27d60 -->
<g id="edge9" class="edge">
<title>node000001e16fd27d20:sw&#45;&gt;node000001e16fd27d60</title>
<path fill="none" stroke="black" d="M198.82,-164.43C188.12,-155.23 175.93,-147.13 163.87,-140.23"/>
<polygon fill="black" stroke="black" points="196.17,-166.75 205.89,-170.97 200.93,-161.61 196.17,-166.75"/>
<polygon fill="black" stroke="black" points="165.58,-137.17 155.12,-135.44 162.21,-143.31 165.58,-137.17"/>
</g>
<!-- node000001e16fd27e20 -->
<g id="node11" class="node">
<title>node000001e16fd27e20</title>
<path fill="#ffa551" stroke="#000000" d="M272,-86.5C272,-86.5 353.5,-86.5 353.5,-86.5 359.5,-86.5 365.5,-92.5 365.5,-98.5 365.5,-98.5 365.5,-123.5 365.5,-123.5 365.5,-129.5 359.5,-135.5 353.5,-135.5 353.5,-135.5 272,-135.5 272,-135.5 266,-135.5 260,-129.5 260,-123.5 260,-123.5 260,-98.5 260,-98.5 260,-92.5 266,-86.5 272,-86.5"/>
<text xml:space="preserve" text-anchor="middle" x="312.75" y="-118.2" font-family="Times New Roman,serif" font-size="14.00">TYPE: *</text>
<polyline fill="none" stroke="#000000" points="260,-111 365.5,-111"/>
<text xml:space="preserve" text-anchor="middle" x="284.12" y="-93.7" font-family="Times New Roman,serif" font-size="14.00">LEFT</text>
<polyline fill="none" stroke="#000000" points="308.25,-86.5 308.25,-111"/>
<text xml:space="preserve" text-anchor="middle" x="336.88" y="-93.7" font-family="Times New Roman,serif" font-size="14.00">RIGHT</text>
</g>
<!-- node000001e16fd27d20&#45;&gt;node000001e16fd27e20 -->
<g id="edge10" class="edge">
<title>node000001e16fd27d20:se&#45;&gt;node000001e16fd27e20</title>
<path fill="none" stroke="black" d="M318.61,-162.31C320.37,-157.59 321,-152.36 320.94,-147.13"/>
<polygon fill="black" stroke="black" points="315.68,-160.4 313.31,-170.72 321.6,-164.13 315.68,-160.4"/>
<polygon fill="black" stroke="black" points="324.44,-146.95 320,-137.33 317.47,-147.62 324.44,-146.95"/>
</g>
<!-- node000001e16fd27da0 -->
<g id="node12" class="node">
<title>node000001e16fd27da0</title>
<path fill="#51ff51" stroke="#000000" d="M12,-0.5C12,-0.5 77.5,-0.5 77.5,-0.5 83.5,-0.5 89.5,-6.5 89.5,-12.5 89.5,-12.5 89.5,-37.5 89.5,-37.5 89.5,-43.5 83.5,-49.5 77.5,-49.5 77.5,-49.5 12,-49.5 12,-49.5 6,-49.5 0,-43.5 0,-37.5 0,-37.5 0,-12.5 0,-12.5 0,-6.5 6,-0.5 12,-0.5"/>
<text xml:space="preserve" text-anchor="middle" x="44.75" y="-32.2" font-family="Times New Roman,serif" font-size="14.00">TYPE: NUM</text>
<polyline fill="none" stroke="#000000" points="0,-25 89.5,-25"/>
<text xml:space="preserve" text-anchor="middle" x="44.75" y="-7.7" font-family="Times New Roman,serif" font-size="14.00">VALUE: 12</text>
</g>
<!-- node000001e16fd27d60&#45;&gt;node000001e16fd27da0 -->
<g id="edge11" class="edge">
<title>node000001e16fd27d60:sw&#45;&gt;node000001e16fd27da0</title>
<path fill="none" stroke="black" d="M41.81,-76.58C39.84,-71.82 38.94,-66.54 38.73,-61.24"/>
<polygon fill="black" stroke="black" points="38.75,-78.3 47.17,-84.74 44.6,-74.46 38.75,-78.3"/>
<polygon fill="black" stroke="black" points="42.22,-61.46 39.13,-51.32 35.23,-61.17 42.22,-61.46"/>
</g>
<!-- node000001e16fd27de0 -->
<g id="node13" class="node">
<title>node000001e16fd27de0</title>
<path fill="#51ff51" stroke="#000000" d="M120,-0.5C120,-0.5 185.5,-0.5 185.5,-0.5 191.5,-0.5 197.5,-6.5 197.5,-12.5 197.5,-12.5 197.5,-37.5 197.5,-37.5 197.5,-43.5 191.5,-49.5 185.5,-49.5 185.5,-49.5 120,-49.5 120,-49.5 114,-49.5 108,-43.5 108,-37.5 108,-37.5 108,-12.5 108,-12.5 108,-6.5 114,-0.5 120,-0.5"/>
<text xml:space="preserve" text-anchor="middle" x="152.75" y="-32.2" font-family="Times New Roman,serif" font-size="14.00">TYPE: NUM</text>
<polyline fill="none" stroke="#000000" points="108,-25 197.5,-25"/>
<text xml:space="preserve" text-anchor="middle" x="152.75" y="-7.7" font-family="Times New Roman,serif" font-size="14.00">VALUE: 4</text>
</g>
<!-- node000001e16fd27d60&#45;&gt;node000001e16fd27de0 -->
<g id="edge12" class="edge">
<title>node000001e16fd27d60:se&#45;&gt;node000001e16fd27de0</title>
<path fill="none" stroke="black" d="M159.55,-76.31C161.26,-71.59 161.82,-66.36 161.67,-61.13"/>
<polygon fill="black" stroke="black" points="156.63,-74.38 154.3,-84.72 162.57,-78.09 156.63,-74.38"/>
<polygon fill="black" stroke="black" points="165.16,-60.86 160.54,-51.32 158.21,-61.66 165.16,-60.86"/>
</g>
<!-- node000001e16fd27e60 -->
<g id="node14" class="node">
<title>node000001e16fd27e60</title>
<path fill="#51ff51" stroke="#000000" d="M228,-0.5C228,-0.5 293.5,-0.5 293.5,-0.5 299.5,-0.5 305.5,-6.5 305.5,-12.5 305.5,-12.5 305.5,-37.5 305.5,-37.5 305.5,-43.5 299.5,-49.5 293.5,-49.5 293.5,-49.5 228,-49.5 228,-49.5 222,-49.5 216,-43.5 216,-37.5 216,-37.5 216,-12.5 216,-12.5 216,-6.5 222,-0.5 228,-0.5"/>
<text xml:space="preserve" text-anchor="middle" x="260.75" y="-32.2" font-family="Times New Roman,serif" font-size="14.00">TYPE: NUM</text>
<polyline fill="none" stroke="#000000" points="216,-25 305.5,-25"/>
<text xml:space="preserve" text-anchor="middle" x="260.75" y="-7.7" font-family="Times New Roman,serif" font-size="14.00">VALUE: 5</text>
</g>
<!-- node000001e16fd27e20&#45;&gt;node000001e16fd27e60 -->
<g id="edge13" class="edge">
<title>node000001e16fd27e20:sw&#45;&gt;node000001e16fd27e60</title>
<path fill="none" stroke="black" d="M253.95,-76.31C252.24,-71.59 251.68,-66.36 251.83,-61.13"/>
<polygon fill="black" stroke="black" points="250.93,-78.09 259.2,-84.72 256.87,-74.38 250.93,-78.09"/>
<polygon fill="black" stroke="black" points="255.29,-61.66 252.96,-51.32 248.34,-60.86 255.29,-61.66"/>
</g>
<!-- node000001e16fd27ea0 -->
<g id="node15" class="node">
<title>node000001e16fd27ea0</title>
<path fill="#51ff51" stroke="#000000" d="M336,-0.5C336,-0.5 401.5,-0.5 401.5,-0.5 407.5,-0.5 413.5,-6.5 413.5,-12.5 413.5,-12.5 413.5,-37.5 413.5,-37.5 413.5,-43.5 407.5,-49.5 401.5,-49.5 401.5,-49.5 336,-49.5 336,-49.5 330,-49.5 324,-43.5 324,-37.5 324,-37.5 324,-12.5 324,-12.5 324,-6.5 330,-0.5 336,-0.5"/>
<text xml:space="preserve" text-anchor="middle" x="368.75" y="-32.2" font-family="Times New Roman,serif" font-size="14.00">TYPE: NUM</text>
<polyline fill="none" stroke="#000000" points="324,-25 413.5,-25"/>
<text xml:space="preserve" text-anchor="middle" x="368.75" y="-7.7" font-family="Times New Roman,serif" font-size="14.00">VALUE: 3</text>
</g>
<!-- node000001e16fd27e20&#45;&gt;node000001e16fd27ea0 -->
<g id="edge14" class="edge">
<title>node000001e16fd27e20:se&#45;&gt;node000001e16fd27ea0</title>
<path fill="none" stroke="black" d="M371.69,-76.58C373.66,-71.82 374.56,-66.54 374.77,-61.24"/>
<polygon fill="black" stroke="black" points="368.9,-74.46 366.33,-84.74 374.75,-78.3 368.9,-74.46"/>
<polygon fill="black" stroke="black" points="378.27,-61.17 374.37,-51.32 371.28,-61.46 378.27,-61.17"/>
</g>
<!-- node000001e17136aa30 -->
<g id="node17" class="node">
<title>node000001e17136aa30</title>
<path fill="#7dc368" stroke="#000000" d="M451,-179C451,-179 498.5,-179 498.5,-179 504.5,-179 510.5,-185 510.5,-191 510.5,-191 510.5,-203 510.5,-203 510.5,-209 504.5,-215 498.5,-215 498.5,-215 451,-215 451,-215 445,-215 439,-209 439,-203 439,-203 439,-191 439,-191 439,-185 445,-179 451,-179"/>
<text xml:space="preserve" text-anchor="middle" x="474.75" y="-192.2" font-family="Times New Roman,serif" font-size="14.00">TYPE: int</text>
</g>
<!-- node000001e17136adb0&#45;&gt;node000001e17136aa30 -->
<g id="edge16" class="edge">
<title>node000001e17136adb0:sw&#45;&gt;node000001e17136aa30</title>
<path fill="none" stroke="black" d="M467.97,-248.37C465.52,-241.63 465.41,-233.9 466.37,-226.54"/>
<polygon fill="black" stroke="black" points="464.92,-250.1 473.2,-256.72 470.85,-246.38 464.92,-250.1"/>
<polygon fill="black" stroke="black" points="469.75,-227.46 468.27,-216.96 462.89,-226.09 469.75,-227.46"/>
</g>
<!-- node000001e17136a7b0 -->
<g id="node18" class="node">
<title>node000001e17136a7b0</title>
<path fill="#ffa551" stroke="#000000" d="M563,-172.5C563,-172.5 644.5,-172.5 644.5,-172.5 650.5,-172.5 656.5,-178.5 656.5,-184.5 656.5,-184.5 656.5,-209.5 656.5,-209.5 656.5,-215.5 650.5,-221.5 644.5,-221.5 644.5,-221.5 563,-221.5 563,-221.5 557,-221.5 551,-215.5 551,-209.5 551,-209.5 551,-184.5 551,-184.5 551,-178.5 557,-172.5 563,-172.5"/>
<text xml:space="preserve" text-anchor="middle" x="603.75" y="-204.2" font-family="Times New Roman,serif" font-size="14.00">TYPE: +</text>
<polyline fill="none" stroke="#000000" points="551,-197 656.5,-197"/>
<text xml:space="preserve" text-anchor="middle" x="575.12" y="-179.7" font-family="Times New Roman,serif" font-size="14.00">LEFT</text>
<polyline fill="none" stroke="#000000" points="599.25,-172.5 599.25,-197"/>
<text xml:space="preserve" text-anchor="middle" x="627.88" y="-179.7" font-family="Times New Roman,serif" font-size="14.00">RIGHT</text>
</g>
<!-- node000001e17136adb0&#45;&gt;node000001e17136a7b0 -->
<g id="edge17" class="edge">
<title>node000001e17136adb0:se&#45;&gt;node000001e17136a7b0</title>
<path fill="none" stroke="black" d="M586.69,-249.12C590.15,-243.93 592.93,-238.21 595.17,-232.54"/>
<polygon fill="black" stroke="black" points="584.03,-246.85 580.45,-256.82 589.47,-251.26 584.03,-246.85"/>
<polygon fill="black" stroke="black" points="598.42,-233.87 598.34,-223.28 591.79,-231.61 598.42,-233.87"/>
</g>
<!-- node000001e17136ac70 -->
<g id="node19" class="node">
<title>node000001e17136ac70</title>
<path fill="#8791ff" stroke="#000000" d="M398.25,-86.5C398.25,-86.5 477.25,-86.5 477.25,-86.5 483.25,-86.5 489.25,-92.5 489.25,-98.5 489.25,-98.5 489.25,-123.5 489.25,-123.5 489.25,-129.5 483.25,-135.5 477.25,-135.5 477.25,-135.5 398.25,-135.5 398.25,-135.5 392.25,-135.5 386.25,-129.5 386.25,-123.5 386.25,-123.5 386.25,-98.5 386.25,-98.5 386.25,-92.5 392.25,-86.5 398.25,-86.5"/>
<text xml:space="preserve" text-anchor="middle" x="437.75" y="-118.2" font-family="Times New Roman,serif" font-size="14.00">TYPE: IDENT</text>
<polyline fill="none" stroke="#000000" points="386.25,-111 489.25,-111"/>
<text xml:space="preserve" text-anchor="middle" x="437.75" y="-93.7" font-family="Times New Roman,serif" font-size="14.00">VALUE: Еблан</text>
</g>
<!-- node000001e17136aa30&#45;&gt;node000001e17136ac70 -->
<g id="edge18" class="edge">
<title>node000001e17136aa30:sw&#45;&gt;node000001e17136ac70</title>
<path fill="none" stroke="black" d="M432.72,-168.59C429.93,-162.05 429.18,-154.56 429.52,-147.2"/>
<polygon fill="black" stroke="black" points="429.7,-170.37 438.16,-176.74 435.52,-166.48 429.7,-170.37"/>
<polygon fill="black" stroke="black" points="432.98,-147.76 430.64,-137.43 426.02,-146.96 432.98,-147.76"/>
</g>
<!-- node000001e17136abf0 -->
<g id="node20" class="node">
<title>node000001e17136abf0</title>
<path fill="#51ff51" stroke="#000000" d="M519,-86.5C519,-86.5 584.5,-86.5 584.5,-86.5 590.5,-86.5 596.5,-92.5 596.5,-98.5 596.5,-98.5 596.5,-123.5 596.5,-123.5 596.5,-129.5 590.5,-135.5 584.5,-135.5 584.5,-135.5 519,-135.5 519,-135.5 513,-135.5 507,-129.5 507,-123.5 507,-123.5 507,-98.5 507,-98.5 507,-92.5 513,-86.5 519,-86.5"/>
<text xml:space="preserve" text-anchor="middle" x="551.75" y="-118.2" font-family="Times New Roman,serif" font-size="14.00">TYPE: NUM</text>
<polyline fill="none" stroke="#000000" points="507,-111 596.5,-111"/>
<text xml:space="preserve" text-anchor="middle" x="551.75" y="-93.7" font-family="Times New Roman,serif" font-size="14.00">VALUE: 12</text>
</g>
<!-- node000001e17136a7b0&#45;&gt;node000001e17136abf0 -->
<g id="edge19" class="edge">
<title>node000001e17136a7b0:sw&#45;&gt;node000001e17136abf0</title>
<path fill="none" stroke="black" d="M544.95,-162.31C543.24,-157.59 542.68,-152.36 542.83,-147.13"/>
<polygon fill="black" stroke="black" points="541.93,-164.09 550.2,-170.72 547.87,-160.38 541.93,-164.09"/>
<polygon fill="black" stroke="black" points="546.29,-147.66 543.96,-137.32 539.34,-146.86 546.29,-147.66"/>
</g>
<!-- node000001e17136ab70 -->
<g id="node21" class="node">
<title>node000001e17136ab70</title>
<path fill="#ffa551" stroke="#000000" d="M627,-86.5C627,-86.5 708.5,-86.5 708.5,-86.5 714.5,-86.5 720.5,-92.5 720.5,-98.5 720.5,-98.5 720.5,-123.5 720.5,-123.5 720.5,-129.5 714.5,-135.5 708.5,-135.5 708.5,-135.5 627,-135.5 627,-135.5 621,-135.5 615,-129.5 615,-123.5 615,-123.5 615,-98.5 615,-98.5 615,-92.5 621,-86.5 627,-86.5"/>
<text xml:space="preserve" text-anchor="middle" x="667.75" y="-118.2" font-family="Times New Roman,serif" font-size="14.00">TYPE: /</text>
<polyline fill="none" stroke="#000000" points="615,-111 720.5,-111"/>
<text xml:space="preserve" text-anchor="middle" x="639.12" y="-93.7" font-family="Times New Roman,serif" font-size="14.00">LEFT</text>
<polyline fill="none" stroke="#000000" points="663.25,-86.5 663.25,-111"/>
<text xml:space="preserve" text-anchor="middle" x="691.88" y="-93.7" font-family="Times New Roman,serif" font-size="14.00">RIGHT</text>
</g>
<!-- node000001e17136a7b0&#45;&gt;node000001e17136ab70 -->
<g id="edge20" class="edge">
<title>node000001e17136a7b0:se&#45;&gt;node000001e17136ab70</title>
<path fill="none" stroke="black" d="M663.06,-162.84C665.57,-157.93 667.15,-152.48 668.1,-147.03"/>
<polygon fill="black" stroke="black" points="660.36,-160.6 657.38,-170.77 666.05,-164.68 660.36,-160.6"/>
<polygon fill="black" stroke="black" points="671.54,-147.81 669.11,-137.5 664.58,-147.07 671.54,-147.81"/>
</g>
<!-- node000001e17136abb0 -->
<g id="node22" class="node">
<title>node000001e17136abb0</title>
<path fill="#51ff51" stroke="#000000" d="M581,-0.5C581,-0.5 646.5,-0.5 646.5,-0.5 652.5,-0.5 658.5,-6.5 658.5,-12.5 658.5,-12.5 658.5,-37.5 658.5,-37.5 658.5,-43.5 652.5,-49.5 646.5,-49.5 646.5,-49.5 581,-49.5 581,-49.5 575,-49.5 569,-43.5 569,-37.5 569,-37.5 569,-12.5 569,-12.5 569,-6.5 575,-0.5 581,-0.5"/>
<text xml:space="preserve" text-anchor="middle" x="613.75" y="-32.2" font-family="Times New Roman,serif" font-size="14.00">TYPE: NUM</text>
<polyline fill="none" stroke="#000000" points="569,-25 658.5,-25"/>
<text xml:space="preserve" text-anchor="middle" x="613.75" y="-7.7" font-family="Times New Roman,serif" font-size="14.00">VALUE: 3</text>
</g>
<!-- node000001e17136ab70&#45;&gt;node000001e17136abb0 -->
<g id="edge21" class="edge">
<title>node000001e17136ab70:sw&#45;&gt;node000001e17136abb0</title>
<path fill="none" stroke="black" d="M608.83,-76.31C607.02,-71.58 606.31,-66.36 606.28,-61.12"/>
<polygon fill="black" stroke="black" points="605.86,-78.17 614.19,-84.72 611.76,-74.41 605.86,-78.17"/>
<polygon fill="black" stroke="black" points="609.76,-61.57 607.04,-51.33 602.78,-61.03 609.76,-61.57"/>
</g>
<!-- node000001e17136ab30 -->
<g id="node23" class="node">
<title>node000001e17136ab30</title>
<path fill="#51ff51" stroke="#000000" d="M689,-0.5C689,-0.5 754.5,-0.5 754.5,-0.5 760.5,-0.5 766.5,-6.5 766.5,-12.5 766.5,-12.5 766.5,-37.5 766.5,-37.5 766.5,-43.5 760.5,-49.5 754.5,-49.5 754.5,-49.5 689,-49.5 689,-49.5 683,-49.5 677,-43.5 677,-37.5 677,-37.5 677,-12.5 677,-12.5 677,-6.5 683,-0.5 689,-0.5"/>
<text xml:space="preserve" text-anchor="middle" x="721.75" y="-32.2" font-family="Times New Roman,serif" font-size="14.00">TYPE: NUM</text>
<polyline fill="none" stroke="#000000" points="677,-25 766.5,-25"/>
<text xml:space="preserve" text-anchor="middle" x="721.75" y="-7.7" font-family="Times New Roman,serif" font-size="14.00">VALUE: 2</text>
</g>
<!-- node000001e17136ab70&#45;&gt;node000001e17136ab30 -->
<g id="edge22" class="edge">
<title>node000001e17136ab70:se&#45;&gt;node000001e17136ab30</title>
<path fill="none" stroke="black" d="M726.67,-76.31C728.48,-71.58 729.19,-66.36 729.22,-61.12"/>
<polygon fill="black" stroke="black" points="723.74,-74.41 721.31,-84.72 729.64,-78.17 723.74,-74.41"/>
<polygon fill="black" stroke="black" points="732.72,-61.03 728.46,-51.33 725.74,-61.57 732.72,-61.03"/>
</g>
</g>
</svg>
